<?xml version="1.0" standalone="no"?>
<!DOCTYPE svg PUBLIC "-//W3C//DTD SVG 20010904//EN"
 "http://www.w3.org/TR/2001/REC-SVG-20010904/DTD/svg10.dtd">
<svg version="1.0" xmlns="http://www.w3.org/2000/svg"
 width="260.000000pt" height="260.000000pt" viewBox="0 0 260.000000 260.000000"
 preserveAspectRatio="xMidYMid meet">

<g transform="translate(0.000000,260.000000) scale(0.100000,-0.100000)"
fill="#000000" stroke="none">
<path d="M406 2463 c-141 -43 -266 -184 -281 -315 -8 -72 -12 -1515 -5 -1630
6 -93 11 -114 42 -174 18 -37 39 -69 45 -71 6 -2 115 127 243 287 l232 290
618 0 618 0 232 -290 c128 -160 238 -289 244 -287 6 2 26 34 45 71 30 60 35
81 41 175 11 162 1 1608 -11 1660 -29 125 -134 236 -266 282 -54 18 -90 19
-902 18 -725 0 -853 -3 -895 -16z m674 -839 c-62 -68 -85 -124 -85 -214 0 -62
5 -85 28 -132 16 -32 47 -74 70 -93 l41 -36 -104 3 -105 3 -97 125 c-54 69
-96 130 -94 137 3 7 47 66 98 132 l93 120 99 0 99 1 -43 -46z m688 -75 c51
-66 95 -125 98 -132 2 -7 -40 -68 -94 -137 l-98 -125 -104 -3 -104 -3 41 36
c23 19 54 61 70 93 23 47 28 70 28 132 0 90 -23 146 -85 214 l-43 46 99 -1 99
0 93 -120z m-378 -54 c6 -8 9 -23 5 -35 -10 -31 -59 -24 -63 9 -6 37 34 55 58
26z"/>
</g>
</svg>
